<svg fill="#ffff33" xmlns="http://www.w3.org/2000/svg"  viewBox="0 0 72 72" width="64px" height="64px"><path d="M36,12c14.921,0,27.06,9.869,27.06,22S50.921,56,36,56c-0.272,0-0.547-0.004-0.827-0.011	c-7.242,5.125-13.055,5.911-13.725,5.986c-0.15,0.017-0.3,0.025-0.449,0.025c-1.372,0-2.662-0.707-3.396-1.891	c-0.814-1.312-0.801-2.976,0.034-4.275c0.015-0.023,1.058-1.65,2.379-4.056C13.091,47.689,8.94,41.161,8.94,34	C8.94,21.869,21.079,12,36,12z M38,42.994c0-0.601,0-6.399,0-7c0-1.104-0.895-2-2-2c-1.104,0-2,0.896-2,2c0,0.601,0,6.399,0,7	c0,1.104,0.896,2,2,2C37.105,44.994,38,44.098,38,42.994z M36,30.203c1.657,0,3-1.343,3-3s-1.343-3-3-3s-3,1.343-3,3	S34.343,30.203,36,30.203z"/></svg>